<svg width="80" height="80" viewBox="0 0 80 80" fill="none" xmlns="http://www.w3.org/2000/svg">
<path d="M32.7172 39.9999C32.7172 35.9788 35.978 32.7182 40.0015 32.7182C44.0249 32.7182 47.2875 35.9788 47.2875 39.9999C47.2875 44.0209 44.0249 47.2815 40.0015 47.2815C35.978 47.2815 32.7172 44.0209 32.7172 39.9999ZM28.7785 39.9999C28.7785 46.1946 33.803 51.2161 40.0015 51.2161C46.1999 51.2161 51.2244 46.1946 51.2244 39.9999C51.2244 33.8052 46.1999 28.7837 40.0015 28.7837C33.803 28.7837 28.7785 33.8052 28.7785 39.9999ZM49.0459 28.3389C49.0457 28.8574 49.1994 29.3642 49.4874 29.7954C49.7754 30.2265 50.1849 30.5627 50.664 30.7612C51.1432 30.9598 51.6705 31.0119 52.1793 30.911C52.6881 30.8101 53.1556 30.5606 53.5225 30.1942C53.8895 29.8278 54.1394 29.3608 54.2408 28.8524C54.3422 28.344 54.2905 27.8169 54.0922 27.3379C53.8939 26.8588 53.5579 26.4493 53.1267 26.1611C52.6955 25.873 52.1885 25.719 51.6697 25.7188H51.6687C50.9734 25.7191 50.3066 25.9953 49.8149 26.4865C49.3231 26.9778 49.0465 27.644 49.0459 28.3389ZM31.1715 57.7797C29.0406 57.6827 27.8824 57.328 27.1127 57.0283C26.0923 56.6313 25.3642 56.1584 24.5987 55.3944C23.8332 54.6304 23.3594 53.9035 22.9639 52.8837C22.6638 52.1148 22.3089 50.9569 22.212 48.8273C22.1061 46.5249 22.0849 45.8332 22.0849 40C22.0849 34.1669 22.1078 33.4772 22.212 31.1728C22.3091 29.0432 22.6666 27.8876 22.9639 27.1164C23.3611 26.0966 23.8343 25.369 24.5987 24.6039C25.3632 23.8389 26.0906 23.3653 27.1127 22.9701C27.8821 22.6702 29.0406 22.3155 31.1715 22.2187C33.4754 22.1128 34.1674 22.0916 40.0015 22.0916C45.8355 22.0916 46.5283 22.1145 48.834 22.2187C50.9649 22.3156 52.1212 22.673 52.8928 22.9701C53.9132 23.3653 54.6413 23.84 55.4068 24.6039C56.1723 25.3679 56.6444 26.0966 57.0417 27.1164C57.3417 27.8853 57.6967 29.0432 57.7935 31.1728C57.8995 33.4772 57.9206 34.1669 57.9206 40C57.9206 45.8332 57.8995 46.5229 57.7935 48.8273C57.6965 50.9569 57.3398 52.1144 57.0417 52.8837C56.6444 53.9035 56.1713 54.6311 55.4068 55.3944C54.6424 56.1577 53.9132 56.6313 52.8928 57.0283C52.1235 57.3281 50.9649 57.6829 48.834 57.7797C46.5302 57.8856 45.8381 57.9067 40.0015 57.9067C34.1648 57.9067 33.4747 57.8856 31.1715 57.7797ZM30.9906 18.289C28.6638 18.3949 27.0739 18.7636 25.6854 19.3036C24.2475 19.8612 23.0302 20.6093 21.8137 21.823C20.5973 23.0368 19.8507 24.2553 19.2927 25.6924C18.7524 27.081 18.3835 28.669 18.2775 30.9944C18.1698 33.3234 18.1452 34.068 18.1452 39.9999C18.1452 45.9318 18.1698 46.6764 18.2775 49.0054C18.3835 51.3309 18.7524 52.9188 19.2927 54.3073C19.8507 55.7436 20.5975 56.9635 21.8137 58.1767C23.03 59.39 24.2475 60.137 25.6854 60.6962C27.0765 61.2362 28.6638 61.6049 30.9906 61.7108C33.3222 61.8167 34.066 61.843 40.0015 61.843C45.9369 61.843 46.682 61.8184 49.0124 61.7108C51.3393 61.6049 52.9281 61.2362 54.3175 60.6962C55.7546 60.137 56.9728 59.3905 58.1892 58.1767C59.4056 56.9629 60.1507 55.7436 60.7102 54.3073C61.2505 52.9188 61.6212 51.3307 61.7254 49.0054C61.8313 46.6746 61.856 45.9318 61.856 39.9999C61.856 34.068 61.8313 33.3234 61.7254 30.9944C61.6194 28.6689 61.2505 27.0801 60.7102 25.6924C60.1507 24.2562 59.4037 23.0387 58.1892 21.823C56.9747 20.6073 55.7546 19.8612 54.3192 19.3036C52.9281 18.7636 51.3391 18.3931 49.0141 18.289C46.6837 18.1831 45.9387 18.1567 40.0032 18.1567C34.0677 18.1567 33.3222 18.1813 30.9906 18.289Z" fill="url(#paint0_radial_4_8)"/>
<path d="M32.7172 39.9999C32.7172 35.9788 35.978 32.7182 40.0015 32.7182C44.0249 32.7182 47.2875 35.9788 47.2875 39.9999C47.2875 44.0209 44.0249 47.2815 40.0015 47.2815C35.978 47.2815 32.7172 44.0209 32.7172 39.9999ZM28.7785 39.9999C28.7785 46.1946 33.803 51.2161 40.0015 51.2161C46.1999 51.2161 51.2244 46.1946 51.2244 39.9999C51.2244 33.8052 46.1999 28.7837 40.0015 28.7837C33.803 28.7837 28.7785 33.8052 28.7785 39.9999ZM49.0459 28.3389C49.0457 28.8574 49.1994 29.3642 49.4874 29.7954C49.7754 30.2265 50.1849 30.5627 50.664 30.7612C51.1432 30.9598 51.6705 31.0119 52.1793 30.911C52.6881 30.8101 53.1556 30.5606 53.5225 30.1942C53.8895 29.8278 54.1394 29.3608 54.2408 28.8524C54.3422 28.344 54.2905 27.8169 54.0922 27.3379C53.8939 26.8588 53.5579 26.4493 53.1267 26.1611C52.6955 25.873 52.1885 25.719 51.6697 25.7188H51.6687C50.9734 25.7191 50.3066 25.9953 49.8149 26.4865C49.3231 26.9778 49.0465 27.644 49.0459 28.3389ZM31.1715 57.7797C29.0406 57.6827 27.8824 57.328 27.1127 57.0283C26.0923 56.6313 25.3642 56.1584 24.5987 55.3944C23.8332 54.6304 23.3594 53.9035 22.9639 52.8837C22.6638 52.1148 22.3089 50.9569 22.212 48.8273C22.1061 46.5249 22.0849 45.8332 22.0849 40C22.0849 34.1669 22.1078 33.4772 22.212 31.1728C22.3091 29.0432 22.6666 27.8876 22.9639 27.1164C23.3611 26.0966 23.8343 25.369 24.5987 24.6039C25.3632 23.8389 26.0906 23.3653 27.1127 22.9701C27.8821 22.6702 29.0406 22.3155 31.1715 22.2187C33.4754 22.1128 34.1674 22.0916 40.0015 22.0916C45.8355 22.0916 46.5283 22.1145 48.834 22.2187C50.9649 22.3156 52.1212 22.673 52.8928 22.9701C53.9132 23.3653 54.6413 23.84 55.4068 24.6039C56.1723 25.3679 56.6444 26.0966 57.0417 27.1164C57.3417 27.8853 57.6967 29.0432 57.7935 31.1728C57.8995 33.4772 57.9206 34.1669 57.9206 40C57.9206 45.8332 57.8995 46.5229 57.7935 48.8273C57.6965 50.9569 57.3398 52.1144 57.0417 52.8837C56.6444 53.9035 56.1713 54.6311 55.4068 55.3944C54.6424 56.1577 53.9132 56.6313 52.8928 57.0283C52.1235 57.3281 50.9649 57.6829 48.834 57.7797C46.5302 57.8856 45.8381 57.9067 40.0015 57.9067C34.1648 57.9067 33.4747 57.8856 31.1715 57.7797ZM30.9906 18.289C28.6638 18.3949 27.0739 18.7636 25.6854 19.3036C24.2475 19.8612 23.0302 20.6093 21.8137 21.823C20.5973 23.0368 19.8507 24.2553 19.2927 25.6924C18.7524 27.081 18.3835 28.669 18.2775 30.9944C18.1698 33.3234 18.1452 34.068 18.1452 39.9999C18.1452 45.9318 18.1698 46.6764 18.2775 49.0054C18.3835 51.3309 18.7524 52.9188 19.2927 54.3073C19.8507 55.7436 20.5975 56.9635 21.8137 58.1767C23.03 59.39 24.2475 60.137 25.6854 60.6962C27.0765 61.2362 28.6638 61.6049 30.9906 61.7108C33.3222 61.8167 34.066 61.843 40.0015 61.843C45.9369 61.843 46.682 61.8184 49.0124 61.7108C51.3393 61.6049 52.9281 61.2362 54.3175 60.6962C55.7546 60.137 56.9728 59.3905 58.1892 58.1767C59.4056 56.9629 60.1507 55.7436 60.7102 54.3073C61.2505 52.9188 61.6212 51.3307 61.7254 49.0054C61.8313 46.6746 61.856 45.9318 61.856 39.9999C61.856 34.068 61.8313 33.3234 61.7254 30.9944C61.6194 28.6689 61.2505 27.0801 60.7102 25.6924C60.1507 24.2562 59.4037 23.0387 58.1892 21.823C56.9747 20.6073 55.7546 19.8612 54.3192 19.3036C52.9281 18.7636 51.3391 18.3931 49.0141 18.289C46.6837 18.1831 45.9387 18.1567 40.0032 18.1567C34.0677 18.1567 33.3222 18.1813 30.9906 18.289Z" fill="url(#paint1_radial_4_8)"/>
<defs>
<radialGradient id="paint0_radial_4_8" cx="0" cy="0" r="1" gradientUnits="userSpaceOnUse" gradientTransform="translate(23.9527 62.0494) scale(57.0631 57.0288)">
<stop offset="0.09" stop-color="#FA8F21"/>
<stop offset="0.78" stop-color="#D82D7E"/>
</radialGradient>
<radialGradient id="paint1_radial_4_8" cx="0" cy="0" r="1" gradientUnits="userSpaceOnUse" gradientTransform="translate(44.6549 64.0066) scale(44.9736 44.9466)">
<stop offset="0.64" stop-color="#8C3AAA" stop-opacity="0"/>
<stop offset="1" stop-color="#8C3AAA"/>
</radialGradient>
</defs>
</svg>
