<svg width="80" height="80" viewBox="0 0 80 80" fill="none" xmlns="http://www.w3.org/2000/svg">
<path d="M40.2045 64.682C52.2754 64.682 62.0608 54.8966 62.0608 42.8257C62.0608 30.7549 52.2754 20.9695 40.2045 20.9695C28.1337 20.9695 18.3483 30.7549 18.3483 42.8257C18.3483 54.8966 28.1337 64.682 40.2045 64.682Z" fill="#34AADF"/>
<path d="M27.7177 42.347C27.7177 42.347 38.5442 37.7411 42.299 36.1192C43.7384 35.4705 48.6197 33.3945 48.6197 33.3945C48.6197 33.3945 50.8726 32.4864 50.6848 34.692C50.6222 35.6003 50.1216 38.779 49.621 42.2173C48.87 47.0828 48.0564 52.4024 48.0564 52.4024C48.0564 52.4024 47.9313 53.8945 46.8674 54.154C45.8036 54.4135 44.0512 53.2458 43.7384 52.9862C43.488 52.7917 39.0448 49.8723 37.4177 48.4451C36.9796 48.0559 36.479 47.2775 37.4802 46.3692C39.7332 44.2284 42.4241 41.5686 44.0512 39.8819C44.8022 39.1034 45.5532 37.287 42.4241 39.4926C37.9809 42.6714 33.6003 45.6556 33.6003 45.6556C33.6003 45.6556 32.599 46.3043 30.7216 45.7204C28.8441 45.1366 26.6537 44.3581 26.6537 44.3581C26.6537 44.3581 25.1519 43.385 27.7177 42.347Z" fill="white"/>
</svg>
