<svg width="80" height="80" viewBox="0 0 80 80" fill="none" xmlns="http://www.w3.org/2000/svg">
<path fill-rule="evenodd" clip-rule="evenodd" d="M48.5347 34.4498C51.2141 36.3545 54.4228 37.3722 57.7102 37.3599V30.8447C57.0639 30.8465 56.4194 30.7773 55.7882 30.6384V35.8288C52.4934 35.8346 49.28 34.8053 46.6019 32.8861V46.2856C46.5938 48.4844 45.9908 50.6399 44.8569 52.5237C43.723 54.4076 42.1004 55.9494 40.1612 56.9858C38.2221 58.0222 36.0386 58.5145 33.8423 58.4104C31.646 58.3064 29.5188 57.61 27.6862 56.395C29.3813 58.11 31.5472 59.2835 33.9096 59.7668C36.272 60.2501 38.7247 60.0215 40.9572 59.1099C43.1896 58.1984 45.1013 56.6448 46.4502 54.6461C47.7991 52.6473 48.5246 50.2932 48.5347 47.8818V34.4498ZM50.9127 27.8043C49.5502 26.3274 48.7141 24.4415 48.5347 22.4402V21.5932H46.7105C46.936 22.8654 47.4267 24.0758 48.1507 25.1459C48.8747 26.216 49.8157 27.1218 50.9127 27.8043ZM31.9102 51.2371C31.2779 50.4103 30.8905 49.4226 30.7919 48.3864C30.6933 47.3503 30.8876 46.3072 31.3526 45.376C31.8177 44.4448 32.5348 43.6629 33.4223 43.1191C34.3099 42.5754 35.3323 42.2918 36.3731 42.3005C36.9477 42.3004 37.519 42.3882 38.067 42.5611V35.8288C37.4264 35.744 36.7803 35.7077 36.1342 35.7202V40.9541C34.7998 40.5323 33.3555 40.6282 32.0886 41.2227C30.8218 41.8173 29.8251 42.8669 29.2968 44.1629C28.7686 45.4588 28.7475 46.9061 29.2378 48.2169C29.7281 49.5277 30.6937 50.6059 31.9428 51.2371H31.9102Z" fill="#EE1D52"/>
<path fill-rule="evenodd" clip-rule="evenodd" d="M46.6009 32.8427C49.2791 34.7619 52.4925 35.7912 55.7873 35.7854V30.595C53.9101 30.1981 52.2048 29.222 50.9118 27.8043C49.8148 27.1218 48.8737 26.216 48.1497 25.1459C47.4257 24.0758 46.935 22.8654 46.7095 21.5932H41.91V47.8818C41.9056 49.0455 41.5368 50.1785 40.8555 51.1218C40.1743 52.0652 39.2147 52.7715 38.1115 53.1416C37.0083 53.5117 35.8169 53.5271 34.7045 53.1855C33.5921 52.844 32.6146 52.1626 31.9093 51.2371C30.7914 50.6731 29.8962 49.7489 29.368 48.6137C28.8398 47.4784 28.7096 46.1983 28.9981 44.98C29.2867 43.7616 29.9774 42.6759 30.9587 41.8982C31.94 41.1205 33.1547 40.6961 34.4067 40.6935C34.9812 40.6953 35.5522 40.7831 36.1007 40.9541V35.7202C33.7309 35.7771 31.4293 36.5247 29.4784 37.8712C27.5275 39.2177 26.0122 41.1046 25.1185 43.3001C24.2248 45.4957 23.9917 47.9044 24.4476 50.2306C24.9036 52.5568 26.0289 54.6993 27.6853 56.395C29.5182 57.6187 31.6488 58.3223 33.85 58.4309C36.0512 58.5395 38.2407 58.0489 40.1851 57.0115C42.1296 55.9741 43.7562 54.4287 44.8918 52.5398C46.0274 50.651 46.6293 48.4895 46.6335 46.2856L46.6009 32.8427Z" fill="black"/>
<path fill-rule="evenodd" clip-rule="evenodd" d="M55.7879 30.5945V29.1937C54.064 29.2011 52.3733 28.7191 50.9124 27.8038C52.2021 29.2256 53.9088 30.2025 55.7879 30.5945ZM46.7101 21.5927C46.7101 21.343 46.6341 21.0824 46.6015 20.8326V19.9857H39.9778V46.2852C39.9721 47.7578 39.3823 49.1679 38.3379 50.2062C37.2936 51.2444 35.88 51.8259 34.4073 51.823C33.5403 51.8274 32.6844 51.6265 31.9099 51.2367C32.6152 52.1621 33.5927 52.8435 34.7051 53.185C35.8175 53.5266 37.0089 53.5113 38.1121 53.1411C39.2153 52.771 40.1749 52.0647 40.8561 51.1213C41.5374 50.178 41.9062 49.045 41.9106 47.8814V21.5927H46.7101ZM36.1013 35.7089V34.2213C33.3757 33.851 30.605 34.4148 28.2408 35.8208C25.8766 37.2268 24.0584 39.3921 23.0823 41.9637C22.1063 44.5354 22.0301 47.3619 22.8661 49.9824C23.702 52.603 25.4009 54.8631 27.6859 56.3945C26.042 54.6949 24.9287 52.5533 24.4821 50.2313C24.0354 47.9093 24.2747 45.5075 25.1707 43.3193C26.0667 41.1311 27.5807 39.2513 29.5276 37.9094C31.4745 36.5675 33.77 35.8218 36.1339 35.7632L36.1013 35.7089Z" fill="#69C9D0"/>
</svg>
