<svg width="164" height="164" viewBox="0 0 164 164" fill="none" xmlns="http://www.w3.org/2000/svg">
<path fill-rule="evenodd" clip-rule="evenodd" d="M52.7714 17.6572C53.3327 17.283 53.9921 17.0833 54.6667 17.0833H109.333C110.008 17.0833 110.667 17.283 111.229 17.6572L131.729 31.3238C132.223 31.6537 132.623 32.1069 132.889 32.6387L146.556 59.972C147.135 61.1295 147.01 62.5147 146.233 63.55L84.7333 145.55C84.0881 146.41 83.0754 146.917 82 146.917C80.9246 146.917 79.9119 146.41 79.2667 145.55L17.7667 63.55C16.9902 62.5147 16.8653 61.1295 17.444 59.972L31.1107 32.6387C31.3766 32.1069 31.7767 31.6537 32.2714 31.3238L52.7714 17.6572ZM55.7011 23.9167L36.8168 36.5062L24.5003 61.1393L82 137.806L139.5 61.1393L127.183 36.5062L108.299 23.9167H55.7011Z" fill="#111111"/>
<path fill-rule="evenodd" clip-rule="evenodd" d="M31.3238 32.2715C32.3705 30.7014 34.4918 30.2771 36.0619 31.3238L55.7011 44.4167H108.299L127.938 31.3238C129.508 30.2771 131.629 30.7014 132.676 32.2715C133.723 33.8415 133.299 35.9628 131.729 37.0095L111.229 50.6762C110.667 51.0504 110.008 51.25 109.333 51.25H54.6667C53.9921 51.25 53.3327 51.0504 52.7714 50.6762L32.2714 37.0095C30.7014 35.9628 30.2771 33.8415 31.3238 32.2715Z" fill="#111111"/>
<path fill-rule="evenodd" clip-rule="evenodd" d="M55.7471 44.592C57.5372 45.1887 58.5047 47.1236 57.908 48.9138L51.4989 68.1409L82 135.243L112.501 68.1409L106.092 48.9138C105.495 47.1236 106.463 45.1887 108.253 44.592C110.043 43.9953 111.978 44.9628 112.575 46.7529L119.408 67.2529C119.681 68.071 119.634 68.9621 119.277 69.7472L85.1104 144.914C84.556 146.134 83.3398 146.917 82 146.917C80.6602 146.917 79.444 146.134 78.8896 144.914L44.7229 69.7472C44.366 68.9621 44.3193 68.071 44.592 67.2529L51.4253 46.7529C52.022 44.9628 53.957 43.9953 55.7471 44.592Z" fill="#111111"/>
</svg>
